# xmcd
#
# Track frame offsets:
#	182
#	19405
#	43770
#	78822
#	105382
#	140195
#	167180
#
# Disc length: 2499 seconds
# Revision: 0
# Processed by: cddbd v1.5.2PL0 Copyright (c) Steve Scherf et al.
# Submitted via: dBpowerAMP V12.0
#
DISCID=5809c107
DTITLE=The Jacksons - Nothin (That Compares 2 U)
DYEAR=1989
DGENRE=New Jack Swing
TTITLE0=Nothin (That Compares 2 U) [7” Edited Version]
TTITLE1=Nothin (That Compares 2 U) [Album Version]
TTITLE2=Nothin (That Compares 2 U) [The Mix]
TTITLE3=Nothin (That Compares 2 U) [Choice Dub]
TTITLE4=Nothin (That Compares 2 U) [Extended Version]
TTITLE5=Nothin (That Compares 2 U) [Sensitive Vocal Mix]
TTITLE6=Nothin (That Compares 2 U) [Bass World Dub]
EXTD=
EXTT0=
EXTT1=
EXTT2=
EXTT3=
EXTT4=
EXTT5=
EXTT6=
PLAYORDER=
